<?xml version="1.0" encoding="UTF-8" standalone="no"?>
<!DOCTYPE svg PUBLIC "-//W3C//DTD SVG 1.1//EN" "http://www.w3.org/Graphics/SVG/1.1/DTD/svg11.dtd">
<svg width="100%" height="100%" viewBox="0 0 216 216" version="1.1" xmlns="http://www.w3.org/2000/svg" xmlns:xlink="http://www.w3.org/1999/xlink" xml:space="preserve" xmlns:serif="http://www.serif.com/" style="fill-rule:evenodd;clip-rule:evenodd;stroke-linecap:round;">
    <g id="Layer-1" serif:id="Layer 1" transform="matrix(1,0,0,1,0,-625.89)">
        <g id="rect4214" transform="matrix(1,0,0,1,0,625.89)">
            <g id="Layer-11" serif:id="Layer 1">
                <path id="rect42141" serif:id="rect4214" d="M88.381,0.359L88.381,88.381L0.359,88.381L0.359,127.619L88.381,127.619L88.381,215.641L127.619,215.641L127.619,127.619L215.641,127.619L215.641,88.381L127.619,88.381L127.619,0.359L88.381,0.359Z" style="fill:rgb(128,0,0);fill-rule:nonzero;stroke:rgb(0,0,255);stroke-width:0.72px;"/>
            </g>
        </g>
        <g id="rect5910" transform="matrix(1,0,0,1,0,625.89)">
            <path d="M91.688,3.42L91.688,91.688L3.42,91.688L3.42,124.312L91.688,124.312L91.688,212.58L124.312,212.58L124.312,124.312L212.58,124.312L212.58,91.688L124.312,91.688L124.312,3.42L91.688,3.42Z" style="fill:rgb(0,0,255);fill-rule:nonzero;stroke:rgb(0,0,255);stroke-width:6.84px;"/>
        </g>
    </g>
</svg>
